<svg width="100" height="100" viewBox="0 0 100 100" fill="none" xmlns="http://www.w3.org/2000/svg">
<path d="M49.9999 96.6666C49.9999 96.6666 85.8333 77.5 85.8333 47.5C85.8333 26.9375 69.7291 10 50 10C30.2708 10 14.1666 26.9375 14.1666 47.5C14.1666 77.5 49.9999 96.6666 49.9999 96.6666Z" stroke="white" stroke-width="5" stroke-linecap="round" stroke-linejoin="round"/>
<path d="M64.1667 47.5C64.1667 50.9166 61.4167 53.6666 58.0001 53.6666C54.5834 53.6666 51.8334 50.9166 51.8334 47.5C51.8334 44.0833 54.5834 41.3333 58.0001 41.3333C61.4167 41.3333 64.1667 44.0833 64.1667 47.5Z" fill="white"/>
<path d="M41.9999 47.5C41.9999 50.9166 39.2499 53.6666 35.8333 53.6666C32.4166 53.6666 29.6666 50.9166 29.6666 47.5C29.6666 44.0833 32.4166 41.3333 35.8333 41.3333C39.2499 41.3333 41.9999 44.0833 41.9999 47.5Z" fill="white"/>
<path d="M44.1666 65.5C44.1666 65.5 46.4166 68 50 68C53.5833 68 55.8333 65.5 55.8333 65.5" stroke="white" stroke-width="5" stroke-linecap="round" stroke-linejoin="round"/>
</svg>
